<?xml version="1.0" encoding="utf-8"?>
<!-- Generator: Adobe Illustrator 24.1.1, SVG Export Plug-In . SVG Version: 6.00 Build 0)  -->
<svg version="1.1" id="Layer_1" xmlns="http://www.w3.org/2000/svg" xmlns:xlink="http://www.w3.org/1999/xlink" x="0px" y="0px"
	 viewBox="0 0 184 32" style="enable-background:new 0 0 184 32;" xml:space="preserve">
<style type="text/css">
	.st0{fill:#5652A3;}
	.st1{fill:#E86035;}
	.st2{fill:#CADB3A;}
	.st3{fill:#FFFFFF;}
</style>
<path class="st0" d="M6.6,25.5H0V32h6.6V25.5z"/>
<path class="st1" d="M16.3,25.5H9.8V32h6.6V25.5z"/>
<path class="st0" d="M26.2,25.5h-6.6V32h6.6V25.5z"/>
<path class="st2" d="M6.6,15H0v6.5h6.6V15z"/>
<path class="st3" d="M16.3,15H9.8v6.5h6.6V15z"/>
<path class="st0" d="M31.4,14.8l-4.3-5l-5,4.3l4.3,5L31.4,14.8z"/>
<path class="st3" d="M6.6,4.6H0v6.5h6.6V4.6z"/>
<path class="st1" d="M22.1,4l-5.7-3.3l-3.3,5.7l5.7,3.3L22.1,4z"/>
<path class="st2" d="M31.4,0h-6.6v6.5h6.6V0z"/>
<path class="st3" d="M47.5,29.2c-0.8-0.1-1.5-0.3-2.4-0.4c-0.8-0.3-1.5-0.6-2.1-0.8c-0.6-0.4-1-0.8-1.3-1.4
	c-0.3-0.7-0.6-1.4-0.6-2.2V17c0-0.8,0.1-1.7,0.6-2.4c0.4-0.7,0.8-1.3,1.5-1.7c0.6-0.4,1.3-0.7,2.1-1c0.8-0.3,1.7-0.4,2.4-0.6
	c0.8-0.3,1.5-0.3,2.5-0.3c2.5,0,4.9,0.1,7.2,0.6v3.2c-2.1-0.6-4.5-0.7-7.2-0.7c-3.1,0-4.6,0.8-4.6,2.6v7.1c0,0.8,0.4,1.5,1.3,1.8
	c0.8,0.4,2.1,0.6,3.8,0.6c0.8,0,1.8-0.1,2.9-0.4v-4.2h-2.9v-2.8h7v9.2c-1,0.3-2.1,0.6-3.5,0.8c-1.4,0.3-2.6,0.3-3.9,0.3
	C49.2,29.4,48.4,29.4,47.5,29.2z"/>
<path class="st3" d="M60.5,25v-4.7c0-1.7,0.6-2.9,1.5-3.6c1.1-0.7,2.6-1.1,4.9-1.1c2.1,0,3.6,0.4,4.6,1.1c1,0.7,1.4,1.9,1.4,3.6v3.2
	h-8.6v1.3c0,0.7,0.3,1.3,0.8,1.7c0.6,0.3,1.5,0.6,2.9,0.6c1.3,0,2.8-0.1,4.5-0.6v2.5c-1.7,0.3-3.3,0.6-5.2,0.6
	C62.9,29.4,60.5,28,60.5,25z M69.3,21.3v-1.9c0-0.4-0.1-0.7-0.6-1c-0.4-0.3-1-0.3-1.8-0.3c-1,0-1.7,0.1-2,0.3
	c-0.3,0.3-0.6,0.6-0.6,1v1.9H69.3z"/>
<path class="st3" d="M80.6,29.4c-0.6,0-1.1-0.1-1.7-0.3c-0.7-0.1-1.3-0.4-1.5-0.8c-0.4-0.3-0.7-0.8-1-1.4c-0.3-0.6-0.4-1.4-0.4-2.2
	v-3.9c0-0.8,0.1-1.7,0.4-2.2c0.3-0.7,0.7-1.1,1.1-1.5c0.4-0.3,0.8-0.6,1.5-0.8c0.7-0.3,1.3-0.3,1.8-0.4c0.7,0,1.3,0,2,0
	c0.8,0,1.5,0,2,0c0.6,0,1.1,0.1,1.7,0.3c0.7,0.1,1.3,0.4,1.5,0.8c0.4,0.3,0.7,0.8,1.1,1.5c0.3,0.7,0.4,1.4,0.4,2.4v3.9
	c0,0.8-0.1,1.5-0.4,2.2c-0.3,0.6-0.6,1.1-1,1.4c-0.4,0.3-0.8,0.6-1.5,0.7c-0.7,0.1-1.3,0.3-1.8,0.4c-0.6,0-1.3,0.1-2,0.1
	C81.7,29.4,81.1,29.4,80.6,29.4z M84.2,26.7c0.4-0.1,0.7-0.3,0.8-0.6c0.1-0.3,0.3-0.7,0.3-1.1v-5c0-0.7-0.1-1.3-0.6-1.5
	c-0.4-0.3-1.1-0.4-2.2-0.4c-1.1,0-1.8,0.1-2.1,0.4c-0.4,0.3-0.6,0.8-0.6,1.5v5c0,0.6,0.1,0.8,0.3,1.1c0.1,0.3,0.4,0.4,0.8,0.6
	c0.4,0.1,1,0.1,1.7,0.1C83.4,26.9,83.9,26.9,84.2,26.7z"/>
<path class="st3" d="M93.4,18.4h-2.5v-2.5h2.5v-1.9c0-1.1,0.1-1.9,0.6-2.5c0.4-0.6,0.8-1,1.7-1.3c0.7-0.3,1.7-0.4,2.9-0.4
	c0.6,0,1.4,0,2.4,0.1v2.5c-0.8-0.1-1.4-0.1-1.7-0.1c-0.7,0-1.1,0.1-1.4,0.3c-0.3,0.3-0.4,0.6-0.4,1.3V16h4.7v-2.1
	c0-1.1,0.1-1.9,0.6-2.5c0.4-0.6,0.8-1,1.7-1.3c0.7-0.3,1.7-0.4,2.9-0.4c0.7,0,1.7,0.1,2.9,0.3v2.5c-1.1-0.1-2-0.3-2.4-0.3
	c-0.7,0-1.1,0.1-1.4,0.3c-0.3,0.3-0.4,0.6-0.4,1.3V16h3.6v2.5h-3.6v10.7h-4V18.5h-4.7v10.7h-3.9V18.4z"/>
<path class="st3" d="M117.6,28.9v-3.2c3.1,0.4,5.2,0.7,6.4,0.7c2.4,0,3.6-0.6,3.6-1.8v-1.1c0-0.6-0.1-1-0.6-1.4
	c-0.3-0.3-1-0.4-1.8-0.4h-2.1c-3.9,0-5.9-1.5-5.9-4.6v-1.3c0-1.5,0.7-2.6,2-3.5c1.3-0.8,3.3-1.3,6.1-1.3c1.4,0,3.3,0.1,5.6,0.4v3.2
	c-2.8-0.3-4.6-0.6-5.7-0.6c-1.4,0-2.4,0.1-2.9,0.4c-0.6,0.3-0.8,0.7-0.8,1.3v1.3c0,1,0.8,1.4,2.4,1.4h2.1c2.1,0,3.5,0.4,4.5,1.1
	c1,0.7,1.4,1.9,1.4,3.5v1.1c0,2.1-0.7,3.5-2.2,4.3c-0.7,0.4-1.5,0.7-2.4,0.8c-0.8,0.1-2,0.3-3.2,0.3
	C122.2,29.4,120.2,29.2,117.6,28.9z"/>
<path class="st3" d="M139.5,29.4c-0.4,0-0.8-0.1-1.5-0.1c-0.6-0.1-1.1-0.1-1.4-0.4c-0.4-0.1-0.7-0.4-1.1-0.8
	c-0.7-0.6-1.1-1.7-1.1-3.2v-4.5c0-1.3,0.3-2.2,0.8-3.1c0.1-0.3,0.6-0.6,0.8-0.8c0.4-0.3,0.8-0.4,1.3-0.6c0.3-0.1,0.7-0.1,1.3-0.3
	c0.6-0.1,1-0.1,1.4-0.1h1.4c1,0,2.4,0.1,4,0.6v2.6c-1.8-0.4-3.3-0.7-4.3-0.7c-1.8,0-2.8,0.6-2.8,1.8v4.9c0,1.4,1,2.1,3.1,2.1
	c1,0,2.4-0.1,4.2-0.6v2.6c-1.7,0.3-3.2,0.4-4.5,0.4C140.4,29.4,139.8,29.4,139.5,29.4z"/>
<path class="st3" d="M152.2,29.4c-0.6,0-1.1-0.1-1.7-0.3c-0.7-0.1-1.3-0.4-1.5-0.8c-0.4-0.3-0.7-0.8-1-1.4c-0.3-0.6-0.4-1.4-0.4-2.2
	v-3.9c0-0.8,0.1-1.7,0.4-2.2c0.3-0.7,0.7-1.1,1.1-1.5c0.4-0.3,0.8-0.6,1.5-0.8c0.7-0.3,1.3-0.3,1.8-0.4c0.7,0,1.3,0,2,0
	c0.8,0,1.5,0,2,0c0.6,0,1.1,0.1,1.7,0.3c0.7,0.1,1.3,0.4,1.5,0.8c0.4,0.3,0.7,0.8,1.1,1.5c0.3,0.7,0.4,1.4,0.4,2.4v3.9
	c0,0.8-0.1,1.5-0.4,2.2c-0.3,0.6-0.6,1.1-1,1.4c-0.4,0.3-0.8,0.6-1.5,0.7c-0.7,0.1-1.3,0.3-1.8,0.4c-0.6,0-1.3,0.1-2,0.1
	C153.3,29.4,152.6,29.4,152.2,29.4z M155.8,26.7c0.4-0.1,0.7-0.3,0.8-0.6c0.1-0.3,0.3-0.7,0.3-1.1v-5c0-0.7-0.1-1.3-0.6-1.5
	c-0.4-0.3-1.1-0.4-2.2-0.4s-1.8,0.1-2.1,0.4c-0.3,0.3-0.6,0.8-0.6,1.5v5c0,0.6,0.1,0.8,0.3,1.1c0.1,0.3,0.4,0.4,0.8,0.6
	c0.4,0.1,1,0.1,1.7,0.1C154.9,26.9,155.6,26.9,155.8,26.7z"/>
<path class="st3" d="M168.9,29.4c-0.4,0-1-0.1-1.4-0.3c-0.6-0.1-1-0.4-1.3-0.7c-0.3-0.3-0.6-0.7-0.8-1.3c-0.3-0.6-0.3-1.1-0.3-1.8
	v-7h-2.6v-2.5h2.6v-3.8h4v3.8h3.6v2.5h-3.6v6.3c0,0.7,0,1.1,0.1,1.4c0.1,0.3,0.3,0.6,0.7,0.7c0.3,0.1,0.8,0.1,1.4,0.1
	c0.3,0,0.7,0,1.4-0.1v2.5c-0.8,0.1-1.5,0.1-2.2,0.1C169.9,29.4,169.4,29.4,168.9,29.4z"/>
<path class="st3" d="M180.1,29.4c-0.4,0-1-0.1-1.4-0.3c-0.6-0.1-1-0.4-1.3-0.7c-0.3-0.3-0.6-0.7-0.8-1.3c-0.3-0.6-0.3-1.1-0.3-1.8
	v-7h-2.6v-2.5h2.6v-3.8h4v3.8h3.6v2.5h-3.6v6.3c0,0.7,0,1.1,0.1,1.4c0.1,0.3,0.3,0.6,0.7,0.7c0.3,0.1,0.8,0.1,1.4,0.1
	c0.3,0,0.7,0,1.4-0.1v2.5c-0.8,0.1-1.5,0.1-2.2,0.1C181.1,29.4,180.5,29.4,180.1,29.4z"/>
</svg>
