<svg width="184" height="32" viewBox="0 0 184 32" fill="none" xmlns="http://www.w3.org/2000/svg">
<g clip-path="url(#clip0)">
<path d="M6.55152 25.4609H0V32H6.55152V25.4609Z" fill="#5652A3"/>
<path d="M16.3091 25.4609H9.75757V32H16.3091V25.4609Z" fill="#E86035"/>
<path d="M26.2061 25.4609H19.6545V32H26.2061V25.4609Z" fill="#5652A3"/>
<path d="M6.55152 15.0261H0V21.5652H6.55152V15.0261Z" fill="#CADB3A"/>
<path d="M16.3091 15.0261H9.75757V21.5652H16.3091V15.0261Z" fill="#071E22"/>
<path d="M31.403 14.7506L27.1222 9.80048L22.1627 14.0731L26.4435 19.0233L31.403 14.7506Z" fill="#5652A3"/>
<path d="M6.55152 4.59131H0V11.1304H6.55152V4.59131Z" fill="#071E22"/>
<path d="M22.1095 4.0149L16.4359 0.745331L13.1602 6.40822L18.8338 9.67778L22.1095 4.0149Z" fill="#E86035"/>
<path d="M31.3637 0H24.8121V6.53913H31.3637V0Z" fill="#CADB3A"/>
<path d="M47.5333 29.2174C46.697 29.0783 46 28.9391 45.1637 28.8C44.3273 28.5217 43.6303 28.2435 43.0727 27.9652C42.5152 27.5478 42.097 27.1304 41.8182 26.5739C41.5394 25.8783 41.2606 25.1826 41.2606 24.3478V16.9739C41.2606 16.1391 41.4 15.3043 41.8182 14.6087C42.2364 13.913 42.6546 13.3565 43.3515 12.9391C43.9091 12.5217 44.6061 12.2435 45.4424 11.9652C46.2788 11.687 47.1152 11.5478 47.8121 11.4087C48.6485 11.1304 49.3455 11.1304 50.3212 11.1304C52.8303 11.1304 55.2 11.2696 57.5697 11.687V14.887C55.4788 14.3304 53.1091 14.1913 50.3212 14.1913C47.2546 14.1913 45.7212 15.0261 45.7212 16.8348V23.9304C45.7212 24.7652 46.1394 25.4609 46.9758 25.7391C47.8121 26.1565 49.0667 26.2956 50.7394 26.2956C51.5758 26.2956 52.5515 26.1565 53.6667 25.8783V21.7043H50.7394V18.9217H57.7091V28.1043C56.7334 28.3826 55.6182 28.6609 54.2243 28.9391C52.8303 29.2174 51.5758 29.2174 50.3212 29.2174C49.2061 29.3565 48.3697 29.3565 47.5333 29.2174Z" fill="#071E22"/>
<path d="M60.4971 25.0435V20.313C60.4971 18.6435 61.0546 17.3913 62.0304 16.6957C63.1456 16 64.6789 15.5826 66.9092 15.5826C69.0001 15.5826 70.5334 16 71.5092 16.6957C72.4849 17.3913 72.9031 18.6435 72.9031 20.313V23.513H64.2607V24.7652C64.2607 25.4609 64.5395 26.0174 65.0971 26.4348C65.6546 26.713 66.6304 26.9913 68.0243 26.9913C69.2789 26.9913 70.8122 26.8522 72.4849 26.4348V28.9391C70.8122 29.2174 69.1395 29.4957 67.3274 29.4957C62.8668 29.3565 60.4971 27.9652 60.4971 25.0435ZM69.2789 21.287V19.3391C69.2789 18.9217 69.1395 18.6435 68.7213 18.3652C68.3031 18.087 67.7455 18.087 66.9092 18.087C65.9334 18.087 65.2365 18.2261 64.9577 18.3652C64.6789 18.6435 64.4001 18.9217 64.4001 19.3391V21.287H69.2789Z" fill="#071E22"/>
<path d="M80.5697 29.3565C80.0122 29.3565 79.4546 29.2174 78.897 29.0783C78.2 28.9391 77.6425 28.6609 77.3637 28.2435C76.9455 27.9652 76.6667 27.4087 76.3879 26.8522C76.1091 26.2957 75.9697 25.4609 75.9697 24.6261V20.7304C75.9697 19.8957 76.1091 19.0609 76.3879 18.5043C76.6667 17.8087 77.0849 17.3913 77.5031 16.9739C77.9212 16.6957 78.3394 16.4174 79.0364 16.1391C79.7334 15.8609 80.2909 15.8609 80.8485 15.7217C81.5455 15.7217 82.1031 15.7217 82.8 15.7217C83.6364 15.7217 84.3334 15.7217 84.7515 15.7217C85.3091 15.7217 85.8667 15.8609 86.4243 16C87.1212 16.1391 87.6788 16.4174 87.9576 16.8348C88.3758 17.113 88.6546 17.6696 89.0728 18.3652C89.3515 19.0609 89.4909 19.7565 89.4909 20.7304V24.6261C89.4909 25.4609 89.3515 26.1565 89.0728 26.8522C88.794 27.4087 88.5152 27.9652 88.097 28.2435C87.6788 28.5217 87.2606 28.8 86.5637 28.9391C85.8667 29.0783 85.3091 29.2174 84.7515 29.3565C84.194 29.3565 83.497 29.4957 82.8 29.4957C81.6849 29.3565 81.1273 29.3565 80.5697 29.3565ZM84.194 26.713C84.6122 26.5739 84.8909 26.4348 85.0303 26.1565C85.1697 25.8783 85.3091 25.4609 85.3091 25.0435V20.0348C85.3091 19.3391 85.1697 18.7826 84.7515 18.5043C84.3334 18.2261 83.6364 18.087 82.5212 18.087C81.4061 18.087 80.7091 18.2261 80.4303 18.5043C80.0122 18.7826 79.8728 19.3391 79.8728 20.0348V25.0435C79.8728 25.6 80.0122 25.8783 80.1515 26.1565C80.2909 26.4348 80.5697 26.5739 80.9879 26.713C81.4061 26.8522 81.9637 26.8522 82.6606 26.8522C83.3576 26.8522 83.9152 26.8522 84.194 26.713Z" fill="#071E22"/>
<path d="M93.394 18.3652H90.8849V15.8609H93.394V13.913C93.394 12.8 93.5334 11.9652 93.9516 11.4087C94.3697 10.8522 94.7879 10.4348 95.6243 10.1565C96.3213 9.87827 97.297 9.73914 98.5516 9.73914C99.1091 9.73914 99.9455 9.73914 100.921 9.87827V12.3826C100.085 12.2435 99.5273 12.2435 99.2485 12.2435C98.5516 12.2435 98.1334 12.3826 97.8546 12.5217C97.5758 12.8 97.4364 13.0783 97.4364 13.7739V16H102.176V13.913C102.176 12.8 102.315 11.9652 102.733 11.4087C103.152 10.8522 103.57 10.4348 104.406 10.1565C105.103 9.87827 106.079 9.73914 107.333 9.73914C108.03 9.73914 109.006 9.87827 110.261 10.0174V12.5217C109.146 12.3826 108.309 12.2435 107.891 12.2435C107.194 12.2435 106.776 12.3826 106.497 12.5217C106.218 12.8 106.079 13.0783 106.079 13.7739V16H109.703V18.5044H106.079V29.2174H102.036V18.5044H97.297V29.2174H93.394V18.3652Z" fill="#071E22"/>
<path d="M117.649 28.9391V25.7391C120.715 26.1565 122.806 26.4348 124.061 26.4348C126.43 26.4348 127.685 25.8783 127.685 24.6261V23.513C127.685 22.9565 127.546 22.5391 127.127 22.1217C126.849 21.8435 126.152 21.7043 125.315 21.7043H123.224C119.321 21.7043 117.37 20.1739 117.37 17.113V15.8609C117.37 14.3304 118.067 13.2174 119.321 12.3826C120.576 11.5478 122.667 11.1304 125.455 11.1304C126.849 11.1304 128.8 11.2696 131.03 11.5478V14.7478C128.242 14.4696 126.43 14.1913 125.315 14.1913C123.921 14.1913 122.946 14.3304 122.388 14.6087C121.83 14.887 121.552 15.3043 121.552 15.8609V17.113C121.552 18.087 122.388 18.5043 123.921 18.5043H126.012C128.103 18.5043 129.497 18.9217 130.473 19.6174C131.449 20.313 131.867 21.5652 131.867 23.0956V24.2087C131.867 26.2956 131.17 27.687 129.636 28.5217C128.939 28.9391 128.103 29.2174 127.267 29.3565C126.43 29.4956 125.315 29.6348 124.061 29.6348C122.249 29.3565 120.158 29.2174 117.649 28.9391Z" fill="#071E22"/>
<path d="M139.533 29.3565C139.115 29.3565 138.697 29.2174 138 29.2174C137.442 29.0783 136.885 29.0783 136.606 28.8C136.188 28.6609 135.909 28.3826 135.491 27.9652C134.794 27.4087 134.376 26.2957 134.376 24.7652V20.313C134.376 19.0609 134.655 18.087 135.212 17.2522C135.351 16.9739 135.77 16.6957 136.048 16.4174C136.467 16.1391 136.885 16 137.303 15.8609C137.582 15.7217 138 15.7217 138.558 15.5826C139.115 15.4435 139.533 15.4435 139.951 15.4435H141.345C142.321 15.4435 143.715 15.5826 145.388 16V18.6435C143.576 18.2261 142.042 17.9478 141.067 17.9478C139.255 17.9478 138.279 18.5044 138.279 19.7565V24.6261C138.279 26.0174 139.255 26.713 141.345 26.713C142.321 26.713 143.715 26.5739 145.527 26.1565V28.8C143.855 29.0783 142.321 29.2174 141.067 29.2174C140.37 29.3565 139.812 29.3565 139.533 29.3565Z" fill="#071E22"/>
<path d="M152.218 29.3565C151.661 29.3565 151.103 29.2174 150.545 29.0783C149.848 28.9391 149.291 28.6609 149.012 28.2435C148.594 27.9652 148.315 27.4087 148.036 26.8522C147.758 26.2957 147.618 25.4609 147.618 24.6261V20.7304C147.618 19.8957 147.758 19.0609 148.036 18.5043C148.315 17.8087 148.733 17.3913 149.151 16.9739C149.57 16.6957 149.988 16.4174 150.685 16.1391C151.382 15.8609 151.939 15.8609 152.497 15.7217C153.194 15.7217 153.752 15.7217 154.448 15.7217C155.285 15.7217 155.982 15.7217 156.4 15.7217C156.958 15.7217 157.515 15.8609 158.073 16C158.77 16.1391 159.327 16.4174 159.606 16.8348C160.024 17.113 160.303 17.6696 160.721 18.3652C161 19.0609 161.139 19.7565 161.139 20.7304V24.6261C161.139 25.4609 161 26.1565 160.721 26.8522C160.442 27.4087 160.164 27.9652 159.745 28.2435C159.327 28.5217 158.909 28.8 158.212 28.9391C157.515 29.0783 156.958 29.2174 156.4 29.3565C155.842 29.3565 155.145 29.4957 154.448 29.4957C153.333 29.3565 152.636 29.3565 152.218 29.3565ZM155.842 26.713C156.261 26.5739 156.539 26.4348 156.679 26.1565C156.818 25.8783 156.958 25.4609 156.958 25.0435V20.0348C156.958 19.3391 156.818 18.7826 156.4 18.5043C155.982 18.2261 155.285 18.087 154.17 18.087C153.055 18.087 152.358 18.2261 152.079 18.5043C151.8 18.7826 151.521 19.3391 151.521 20.0348V25.0435C151.521 25.6 151.661 25.8783 151.8 26.1565C151.939 26.4348 152.218 26.5739 152.636 26.713C153.055 26.8522 153.612 26.8522 154.309 26.8522C154.867 26.8522 155.564 26.8522 155.842 26.713Z" fill="#071E22"/>
<path d="M168.946 29.3565C168.527 29.3565 167.97 29.2174 167.552 29.0783C166.994 28.9392 166.576 28.6609 166.297 28.3826C166.018 28.1044 165.74 27.687 165.461 27.1305C165.182 26.5739 165.182 26.0174 165.182 25.3218V18.3652H162.533V15.8609H165.182V12.1044H169.224V15.8609H172.849V18.3652H169.224V24.6261C169.224 25.3218 169.224 25.7392 169.364 26.0174C169.503 26.2957 169.643 26.5739 170.061 26.7131C170.34 26.8522 170.897 26.8522 171.455 26.8522C171.733 26.8522 172.152 26.8522 172.849 26.7131V29.2174C172.012 29.3565 171.315 29.3565 170.618 29.3565C169.921 29.3565 169.364 29.3565 168.946 29.3565Z" fill="#071E22"/>
<path d="M180.097 29.3565C179.679 29.3565 179.121 29.2174 178.703 29.0783C178.145 28.9392 177.727 28.6609 177.448 28.3826C177.17 28.1044 176.891 27.687 176.612 27.1305C176.333 26.5739 176.333 26.0174 176.333 25.3218V18.3652H173.685V15.8609H176.333V12.1044H180.376V15.8609H184V18.3652H180.376V24.6261C180.376 25.3218 180.376 25.7392 180.515 26.0174C180.655 26.2957 180.794 26.5739 181.212 26.7131C181.491 26.8522 182.048 26.8522 182.606 26.8522C182.885 26.8522 183.303 26.8522 184 26.7131V29.2174C183.164 29.3565 182.467 29.3565 181.77 29.3565C181.073 29.3565 180.515 29.3565 180.097 29.3565Z" fill="#071E22"/>
</g>
<defs>
<clipPath id="clip0">
<rect width="184" height="32" fill="white"/>
</clipPath>
</defs>
</svg>
